<svg xmlns="http://www.w3.org/2000/svg" width="1200" height="900" viewBox="0 0 1200 900" role="img" aria-labelledby="title desc">
<defs><linearGradient id="bg" x1="0" y1="0" x2="1" y2="1"><stop offset="0" stop-color="hsl(311 30% 97%)"/><stop offset="1" stop-color="#ffffff"/></linearGradient></defs>
<rect width="1200" height="900" rx="34" fill="url(#bg)"/>
<text x="600" y="68" text-anchor="middle" font-family="Arial,Helvetica,sans-serif" font-size="26" font-weight="700" fill="#4f46e5" letter-spacing="3">INSIGHTFUL REVIEWS</text>
<text id="title" x="600" y="115" text-anchor="middle" font-family="Arial,Helvetica,sans-serif" font-size="34" font-weight="700" fill="#111827">JBL Tune 670NC</text>
<desc id="desc">Product illustration for JBL Tune 670NC</desc>
<g><path d="M370 410a230 230 0 0 1 460 0v120a90 90 0 0 1-90 90h-30V430h80v-20a190 190 0 0 0-380 0v20h80v190h-30a90 90 0 0 1-90-90z" fill="#111827"/><path d="M370 420h80v190h-80zM750 420h80v190h-80z" fill="hsl(311 72% 52%)"/><circle cx="600" cy="300" r="75" fill="hsl(346 78% 62%)" opacity=".5"/></g>
<rect x="335" y="825" width="530" height="4" rx="2" fill="hsl(311 72% 52%)" opacity=".35"/>
<text x="600" y="865" text-anchor="middle" font-family="Arial,Helvetica,sans-serif" font-size="18" fill="#64748b">Product catalogue illustration</text>
</svg>